<svg width="1081" height="98" viewBox="0 0 1081 98" fill="none" xmlns="http://www.w3.org/2000/svg">
<path fill-rule="evenodd" clip-rule="evenodd" d="M628.254 94.025C633.474 96.635 639.729 97.9399 647.019 97.9399C654.309 97.9399 660.519 96.635 665.649 94.025C670.869 91.415 675.144 87.86 678.474 83.36C681.804 78.77 684.234 73.5499 685.764 67.7C687.294 61.85 688.059 55.685 688.059 49.205C688.059 42.635 687.294 36.4249 685.764 30.5749C684.234 24.6349 681.804 19.4149 678.474 14.9149C675.144 10.3249 670.869 6.72495 665.649 4.11495C660.519 1.50495 654.309 0.199951 647.019 0.199951C639.729 0.199951 633.474 1.50495 628.254 4.11495C623.124 6.72495 618.894 10.3249 615.564 14.9149C612.234 19.4149 609.804 24.6349 608.274 30.5749C606.744 36.4249 605.979 42.635 605.979 49.205C605.979 55.685 606.744 61.85 608.274 67.7C609.804 73.5499 612.234 78.77 615.564 83.36C618.894 87.86 623.124 91.415 628.254 94.025ZM664.299 85.655C659.439 88.805 653.679 90.38 647.019 90.38C640.449 90.38 634.689 88.805 629.739 85.655C624.879 82.415 621.099 77.735 618.399 71.615C615.699 65.405 614.349 57.935 614.349 49.205C614.349 40.565 615.699 33.185 618.399 27.065C621.099 20.8549 624.879 16.0849 629.739 12.7549C634.689 9.42495 640.449 7.75995 647.019 7.75995C653.679 7.75995 659.439 9.42495 664.299 12.7549C669.159 16.0849 672.939 20.8549 675.639 27.065C678.339 33.185 679.689 40.565 679.689 49.205C679.689 57.935 678.339 65.405 675.639 71.615C672.939 77.735 669.159 82.415 664.299 85.655ZM753.578 77.555L785.168 1.81995H796.913V96.32H788.813V13.5649L758.168 85.52H748.718L718.073 13.5649V96.32H709.973V1.81995H721.718L753.578 77.555ZM898.547 1.81995L866.957 77.555L835.097 1.81995H823.352V96.32H831.452V13.5649L862.097 85.52H871.547L902.192 13.5649V96.32H910.292V1.81995H898.547ZM924.851 96.32L958.466 1.81995H959.006H966.836L1000.45 96.32H991.811L982.157 68.5099H943.971L934.436 96.32H924.851ZM946.563 60.95L962.945 13.1678L979.532 60.95H946.563ZM1015.31 96.32V1.81995H1025.57L1072.15 83.0784V1.81995H1080.25V96.32H1070.12L1023.41 15.0421V96.32H1015.31ZM531.072 96.32V1.81995H560.772C566.262 1.81995 571.122 2.85495 575.352 4.92495C579.582 6.99495 582.867 10.1449 585.207 14.3749C587.637 18.6049 588.852 23.96 588.852 30.4399C588.852 34.5799 587.727 38.7199 585.477 42.8599C583.227 46.91 579.987 50.285 575.757 52.985C574.044 54.0647 572.169 54.9211 570.133 55.5542L593.847 96.32H584.397L561.852 56.8999L561.962 56.8738C561.482 56.8912 560.995 56.8999 560.502 56.8999H539.982V96.32H531.072ZM539.712 49.34H560.232C564.372 49.34 567.927 48.395 570.897 46.505C573.957 44.615 576.297 42.23 577.917 39.35C579.627 36.47 580.482 33.5 580.482 30.4399C580.482 23.24 578.637 17.93 574.947 14.51C571.347 11.0899 566.532 9.37995 560.502 9.37995H539.712V49.34ZM450.328 1.81995H440.743L474.358 96.32H474.898H482.728L516.343 1.81995H507.703L478.837 84.9721L450.328 1.81995ZM338.132 63.38L363.917 1.81995H387.002V96.32H367.292V38.27L347.582 87.95H329.357L308.837 38.405V96.32H289.127V1.81995H312.347L338.132 63.38ZM220.42 1.81995L187.345 96.32H208.675L216.034 74.585H248.648L255.79 96.32H276.31L243.37 1.81995H240.67H224.74H220.42ZM232.585 25.6979L221.793 57.575H243.059L232.585 25.6979ZM102.579 96.32V1.81995H136.059C146.409 1.81995 154.914 3.79995 161.574 7.75995C168.324 11.7199 173.32 17.2549 176.559 24.3649C179.889 31.385 181.554 39.665 181.554 49.205C181.554 58.565 179.889 66.7999 176.559 73.91C173.32 80.9299 168.324 86.42 161.574 90.38C154.914 94.34 146.409 96.32 136.059 96.32H102.579ZM122.289 79.31H136.464C141.774 79.31 146.229 78.275 149.829 76.205C153.43 74.135 156.129 70.895 157.929 66.485C159.819 61.985 160.764 56.18 160.764 49.07C160.764 41.96 159.819 36.2 157.929 31.79C156.129 27.38 153.43 24.14 149.829 22.07C146.229 19.91 141.774 18.83 136.464 18.83H122.289V79.31ZM33.8719 1.81995L0.796875 96.32H22.1269L29.4857 74.585H62.1004L69.2419 96.32H89.7619L56.8219 1.81995H54.1219H38.1919H33.8719ZM46.0375 25.6979L35.2448 57.575H56.5114L46.0375 25.6979Z" fill="#DE2217"/>
</svg>
